<svg width="22" height="28" viewBox="0 0 22 28" fill="none" xmlns="http://www.w3.org/2000/svg">
<path d="M4.2938 6.07091C4.56994 6.07091 4.7938 5.84705 4.7938 5.57091C4.7938 5.29477 4.56994 5.07091 4.2938 5.07091V6.07091ZM17.7016 6.70601V7.20601C17.9778 7.20601 18.2016 6.98215 18.2016 6.70601H17.7016ZM13.143 3.67529L12.6947 3.45393C12.6181 3.60891 12.6271 3.79242 12.7183 3.93922C12.8096 4.08602 12.9701 4.17529 13.143 4.17529V3.67529ZM13.3218 2.91092H12.8218L12.8218 2.91369L13.3218 2.91092ZM8.85254 2.91092L9.35254 2.91784V2.91092H8.85254ZM9.03127 3.67529V4.17529C9.20481 4.17529 9.36594 4.0853 9.45697 3.93755C9.548 3.7898 9.5559 3.60541 9.47785 3.45041L9.03127 3.67529ZM4.33853 6.70601H3.83853C3.83853 6.98215 4.06239 7.20601 4.33853 7.20601V6.70601ZM11.4754 9.68322C11.4754 9.40708 11.2515 9.18322 10.9754 9.18322C10.6993 9.18322 10.4754 9.40708 10.4754 9.68322H11.4754ZM10.4754 14.1242C10.4754 14.4003 10.6993 14.6242 10.9754 14.6242C11.2515 14.6242 11.4754 14.4003 11.4754 14.1242H10.4754ZM13.5721 12.4037C13.8482 12.4037 14.0721 12.1799 14.0721 11.9037C14.0721 11.6276 13.8482 11.4037 13.5721 11.4037V12.4037ZM8.37876 11.4037C8.10261 11.4037 7.87876 11.6276 7.87876 11.9037C7.87876 12.1799 8.10261 12.4037 8.37876 12.4037V11.4037ZM4.55306 16.5632C4.27692 16.5632 4.05306 16.7871 4.05306 17.0632C4.05306 17.3393 4.27692 17.5632 4.55306 17.5632V16.5632ZM17.4737 17.5632C17.7499 17.5632 17.9737 17.3393 17.9737 17.0632C17.9737 16.7871 17.7499 16.5632 17.4737 16.5632V17.5632ZM4.55306 19.6933C4.27692 19.6933 4.05306 19.9172 4.05306 20.1933C4.05306 20.4694 4.27692 20.6933 4.55306 20.6933V19.6933ZM17.4737 20.6933C17.7499 20.6933 17.9737 20.4694 17.9737 20.1933C17.9737 19.9172 17.7499 19.6933 17.4737 19.6933V20.6933ZM4.55306 22.8616C4.27692 22.8616 4.05306 23.0855 4.05306 23.3616C4.05306 23.6377 4.27692 23.8616 4.55306 23.8616V22.8616ZM17.4737 23.8616C17.7499 23.8616 17.9737 23.6377 17.9737 23.3616C17.9737 23.0855 17.7499 22.8616 17.4737 22.8616V23.8616ZM17.7016 6.07091H18.5955V5.07091H17.7016V6.07091ZM18.5955 6.07091C19.6813 6.07091 20.5 6.89204 20.5 7.86402H21.5C21.5 6.29829 20.1912 5.07091 18.5955 5.07091V6.07091ZM20.5 7.86402V24.7069H21.5V7.86402H20.5ZM20.5 24.7069C20.5 25.6705 19.6687 26.5 18.5955 26.5V27.5C20.177 27.5 21.5 26.2657 21.5 24.7069H20.5ZM18.5955 26.5H3.39994V27.5H18.5955V26.5ZM3.39994 26.5C2.31593 26.5 1.5 25.6768 1.5 24.7069H0.5C0.5 26.267 1.80239 27.5 3.39994 27.5V26.5ZM1.5 24.7069V7.86402H0.5V24.7069H1.5ZM1.5 7.86402C1.5 6.89648 2.33133 6.07091 3.39994 6.07091V5.07091C1.82274 5.07091 0.5 6.30149 0.5 7.86402H1.5ZM3.39994 6.07091H4.2938V5.07091H3.39994V6.07091ZM18.2016 6.70601V5.57091H17.2016V6.70601H18.2016ZM18.2016 5.57091V4.54283H17.2016V5.57091H18.2016ZM18.2016 4.54283C18.2016 4.15267 18.0198 3.79765 17.7295 3.54938L17.0795 4.30939C17.1697 4.38653 17.2016 4.47282 17.2016 4.54283H18.2016ZM17.7295 3.54938C17.4416 3.30319 17.0657 3.17529 16.6871 3.17529V4.17529C16.8467 4.17529 16.9869 4.23019 17.0795 4.30939L17.7295 3.54938ZM16.6871 3.17529H13.143V4.17529H16.6871V3.17529ZM13.5913 3.89665C13.7441 3.58719 13.8237 3.25063 13.8218 2.90816L12.8218 2.91369C12.8228 3.09623 12.7807 3.27972 12.6947 3.45393L13.5913 3.89665ZM13.8218 2.91092C13.8218 2.24396 13.5113 1.62358 12.9922 1.1797L12.3423 1.93971C12.6614 2.21256 12.8218 2.56426 12.8218 2.91092H13.8218ZM12.9922 1.1797C12.4755 0.737858 11.7894 0.5 11.0872 0.5V1.5C11.5703 1.5 12.0208 1.66481 12.3423 1.93971L12.9922 1.1797ZM11.0872 0.5C10.385 0.5 9.69875 0.737844 9.18205 1.1797L9.83196 1.93971C10.1534 1.66482 10.604 1.5 11.0872 1.5V0.5ZM9.18205 1.1797C8.66292 1.62362 8.35254 2.24403 8.35254 2.91092H9.35254C9.35254 2.5642 9.51294 2.21251 9.83196 1.93971L9.18205 1.1797ZM8.35259 2.90401C8.34782 3.2494 8.42805 3.5891 8.5847 3.90017L9.47785 3.45041C9.39149 3.27892 9.35001 3.09781 9.3525 2.91784L8.35259 2.90401ZM9.03127 3.17529H5.35307V4.17529H9.03127V3.17529ZM5.35307 3.17529C4.9745 3.17529 4.59859 3.30319 4.31069 3.54938L4.96061 4.30939C5.05323 4.23019 5.1935 4.17529 5.35307 4.17529V3.17529ZM4.31069 3.54938C4.02037 3.79765 3.83853 4.15267 3.83853 4.54283H4.83853C4.83853 4.47282 4.87041 4.38653 4.96061 4.30939L4.31069 3.54938ZM3.83853 4.54283V6.70601H4.83853V4.54283H3.83853ZM4.33853 7.20601H17.7016V6.20601H4.33853V7.20601ZM10.4754 9.68322V11.9037H11.4754V9.68322H10.4754ZM10.4754 11.9037V14.1242H11.4754V11.9037H10.4754ZM13.5721 11.4037H10.9754V12.4037H13.5721V11.4037ZM10.9754 11.4037H8.37876V12.4037H10.9754V11.4037ZM11.1547 2.84977C11.1547 2.83531 11.1584 2.82258 11.1627 2.81405C11.1665 2.80627 11.1692 2.80496 11.1662 2.80757C11.1592 2.81352 11.136 2.8275 11.0961 2.8275V3.8275C11.6045 3.8275 12.1547 3.46029 12.1547 2.84977H11.1547ZM11.0961 2.8275C11.0562 2.8275 11.033 2.81352 11.026 2.80757C11.023 2.80496 11.0256 2.80627 11.0295 2.81405C11.0337 2.82258 11.0374 2.83531 11.0374 2.84977H10.0374C10.0374 3.46029 10.5877 3.8275 11.0961 3.8275V2.8275ZM11.0374 2.84977C11.0374 2.86423 11.0337 2.87695 11.0295 2.88549C11.0256 2.89327 11.023 2.89457 11.026 2.89197C11.033 2.88601 11.0562 2.87204 11.0961 2.87204V1.87204C10.5877 1.87204 10.0374 2.23925 10.0374 2.84977H11.0374ZM11.0961 2.87204C11.136 2.87204 11.1592 2.88601 11.1662 2.89197C11.1692 2.89457 11.1665 2.89327 11.1627 2.88549C11.1584 2.87695 11.1547 2.86423 11.1547 2.84977H12.1547C12.1547 2.23925 11.6045 1.87204 11.0961 1.87204V2.87204ZM4.55306 17.5632H17.4737V16.5632H4.55306V17.5632ZM4.55306 20.6933H17.4737V19.6933H4.55306V20.6933ZM4.55306 23.8616H17.4737V22.8616H4.55306V23.8616Z" fill="white"/>
</svg>
