<svg width="13" height="18" viewBox="0 0 13 18" fill="none" xmlns="http://www.w3.org/2000/svg">
<path d="M11.5017 7.01394L6.48729 0L1.22023 7.65391C0.657328 8.4472 0.276194 9.35585 0.104207 10.3147C-0.0678087 11.2738 -0.0264593 12.259 0.225256 13.2C0.529812 14.3439 1.14132 15.3819 1.993 16.2002C2.84471 17.0185 3.90391 17.5857 5.05467 17.84C5.525 17.9455 6.00543 17.9991 6.48727 18C7.63003 18.0027 8.75319 17.7027 9.74344 17.1299C10.7339 16.5569 11.5565 15.7316 12.1282 14.7373C12.6999 13.7429 13.0006 12.6145 13 11.4658C13 10.0938 12.5084 8.61385 11.5016 7.01399L11.5017 7.01394ZM6.94908 15.6C6.71236 15.6 6.49362 15.4731 6.3752 15.267C6.2569 15.061 6.2569 14.8071 6.3752 14.6011C6.49363 14.395 6.71237 14.2681 6.94908 14.2681C7.54144 14.267 8.10934 14.0304 8.52872 13.61C8.9482 13.1895 9.18504 12.6194 9.18766 12.024C9.18766 11.786 9.31395 11.5662 9.51894 11.4473C9.72393 11.3282 9.97654 11.3282 10.1815 11.4473C10.3866 11.5662 10.5129 11.786 10.5129 12.024C10.5103 12.9727 10.1338 13.8816 9.46585 14.5518C8.79789 15.2221 7.89283 15.599 6.94908 15.6Z" fill="white"/>
</svg>
